<?xml version="1.0" encoding="UTF-8" standalone="no"?>
<!DOCTYPE svg PUBLIC "-//W3C//DTD SVG 1.1//EN" "http://www.w3.org/Graphics/SVG/1.1/DTD/svg11.dtd">
<svg width="100%" height="100%" viewBox="0 0 3300 3300" version="1.1" xmlns="http://www.w3.org/2000/svg" xmlns:xlink="http://www.w3.org/1999/xlink" xml:space="preserve" xmlns:serif="http://www.serif.com/" style="fill-rule:evenodd;clip-rule:evenodd;stroke-linejoin:round;stroke-miterlimit:2;">
    <path d="M1650,3300L1650,3300C1657.22,3300 1663.24,3294.46 1663.83,3287.26C1672.19,3185.01 1728.12,2501.74 1728.12,2501.74C1834.66,2311.35 1832.88,2159.7 1805.58,2019.16C1748.78,1726.78 1726.3,1433.46 1846.56,1130.32C1846.56,1130.32 2096.9,1121.81 2182.3,1432.58C2252.66,1819.26 2088.95,1847.87 2099.79,2321.57C2247,2140.05 2247,2140.05 2247,2140.05C2178.18,2628.46 2229.58,3195.17 2229.58,3195.17C2854.68,2960.32 3300,2356.75 3300,1650C3300,1035.82 2963.7,499.569 2465.37,215.496C2465.37,215.496 2413.2,422.275 2189.42,583.894C2189.42,583.894 2044.07,415.076 1971.97,31.453C1793.27,107.572 1650,377.94 1650,377.94C1650,377.94 1506.73,107.572 1328.03,31.453C1255.93,415.076 1110.58,583.894 1110.58,583.894C886.802,422.275 834.635,215.496 834.635,215.496C336.296,499.569 0,1035.82 0,1650C0,2356.75 445.315,2960.32 1070.42,3195.17C1070.42,3195.17 1121.82,2628.46 1053,2140.05C1053,2140.05 1053,2140.05 1200.21,2321.57C1211.05,1847.87 1047.34,1819.26 1117.7,1432.58C1203.1,1121.81 1453.44,1130.32 1453.44,1130.32C1573.7,1433.46 1551.22,1726.78 1494.42,2019.16C1467.12,2159.7 1465.34,2311.35 1571.88,2501.74C1571.88,2501.74 1627.81,3185.01 1636.17,3287.26C1636.76,3294.46 1642.78,3300 1650,3300Z" style="fill:url(#_Radial1);"/>
    <defs>
        <radialGradient id="_Radial1" cx="0" cy="0" r="1" gradientUnits="userSpaceOnUse" gradientTransform="matrix(1296.5,0,0,1296.5,1650,1650)"><stop offset="0" style="stop-color:rgb(171,169,82);stop-opacity:1"/><stop offset="0.45" style="stop-color:rgb(143,119,133);stop-opacity:1"/><stop offset="1" style="stop-color:rgb(76,0,255);stop-opacity:1"/></radialGradient>
    </defs>
</svg>
